<?xml version="1.0" encoding="UTF-8"?>
<!DOCTYPE svg PUBLIC "-//W3C//DTD SVG 1.1//EN" "http://www.w3.org/Graphics/SVG/1.1/DTD/svg11.dtd">
<!-- Creator: CorelDRAW X5 -->
<svg xmlns="http://www.w3.org/2000/svg" xml:space="preserve" width="321px" height="238px" style="shape-rendering:geometricPrecision; text-rendering:geometricPrecision; image-rendering:optimizeQuality; fill-rule:evenodd; clip-rule:evenodd"
viewBox="0 0 49 36"
 xmlns:xlink="http://www.w3.org/1999/xlink">
 <defs>
  <style type="text/css">
   <![CDATA[
    .str0 {stroke:white;stroke-width:1.91734;stroke-linecap:round}
    .fil0 {fill:none}
    .fil1 {fill:white}
   ]]>
  </style>
 </defs>
 <g id="Vrstva_x0020_1">
  <metadata id="CorelCorpID_0Corel-Layer"/>
  <path class="fil0 str0" d="M34 28c0,-9 2,-18 5,-27"/>
  <path class="fil0 str0" d="M29 28c0,-9 2,-18 5,-27"/>
  <path class="fil0 str0" d="M25 28c0,-9 2,-18 5,-27"/>
  <path class="fil0 str0" d="M26 30c-4,-7 -11,-14 -18,-20"/>
  <path class="fil0 str0" d="M29 27c-4,-7 -11,-14 -18,-20"/>
  <path class="fil0 str0" d="M34 25c-4,-7 -11,-14 -18,-20"/>
  <rect class="fil1" transform="matrix(2.57237 0.938426 -0.831038 2.278 0.592488 23.2311)" width="10" height="1" rx="1" ry="1"/>
  <rect class="fil1" transform="matrix(0.943124 -2.57065 2.27648 0.835198 37.2522 27.4075)" width="10" height="1" rx="1" ry="1"/>
  <path class="fil1" d="M29 32c2,-2 4,-3 7,-3 1,0 3,0 3,1l0 0c1,1 0,3 -1,3 -3,-1 -5,0 -7,3 0,1 -2,0 -3,-1l0 0c-1,-1 0,-2 1,-3z"/>
 </g>
</svg>
